<svg width="21" height="21" viewBox="0 0 21 21" fill="none" xmlns="http://www.w3.org/2000/svg">
<path d="M11.6948 1.41708C11.8725 1.49247 12.0652 1.54064 12.2665 1.55786L12.264 1.55047V1.54886L12.2602 1.53899L12.2565 1.53034L12.2553 1.52912L12.2528 1.52173L12.2465 1.50812L12.2454 1.50438L12.2381 1.48716L12.2305 1.4699L12.2294 1.46625L12.2109 1.42668L12.2097 1.42551L12.2058 1.41803L12.2022 1.40942L12.1898 1.38599V1.38477L12.185 1.37612L12.1799 1.36499L12.1763 1.36016C12.09 1.19712 11.9787 1.04764 11.8491 0.917988C11.7367 0.805552 11.6095 0.706769 11.4712 0.626465L11.4701 0.63016L11.4674 0.632682V0.6339L11.4662 0.636334L11.465 0.640074L11.4626 0.643813L11.4613 0.647552L11.4601 0.651204L11.459 0.653726L11.4578 0.654943L11.4566 0.657378L11.4528 0.664813L11.4515 0.668552L11.4504 0.672291H11.4492L11.448 0.675987L11.4468 0.678509L11.4456 0.682161L11.4431 0.6859L11.4418 0.689552L11.4406 0.692117L11.4394 0.693291L11.4381 0.69703L11.437 0.699509L11.4345 0.703204L11.4333 0.706943L11.4321 0.710596L11.4297 0.714378L11.4283 0.716857L11.4258 0.720596L11.4247 0.724248L11.4222 0.727987V0.728944L11.421 0.731509L11.4185 0.735204L11.4173 0.737726L11.4161 0.741378L11.4135 0.745117L11.4123 0.747596V0.748857L11.4098 0.751335L11.4086 0.755031L11.4062 0.75877L11.405 0.762422L11.4023 0.766161L11.4011 0.768596L11.3987 0.772335L11.3975 0.776074L11.395 0.779813L11.3938 0.782248L11.3926 0.784857L11.3911 0.7859L11.39 0.789596L11.3873 0.793335L11.3862 0.795813L11.3837 0.799552L11.3825 0.803205H11.3813L11.3801 0.80577L11.3789 0.809422L11.3765 0.813161L11.3738 0.816813L11.3726 0.819379L11.3714 0.8219L11.3702 0.823031L11.369 0.82677L11.3666 0.830509L11.3629 0.836683L11.3603 0.840422L11.3591 0.842944L11.3566 0.846683L11.3505 0.857813C11.322 0.904683 11.2911 0.95164 11.259 0.996162L11.2578 0.99864L11.2565 0.999814L11.254 1.00355L11.2515 1.00721L11.2491 1.01094L11.2466 1.0146H11.2454L11.2292 1.03694L11.2268 1.0406L11.2243 1.04434L11.2218 1.04799L11.2206 1.04925L11.2194 1.05047L11.2156 1.05412L11.2131 1.05786L11.2106 1.06155L11.2082 1.06529L11.2045 1.06903L11.2019 1.07268L11.1995 1.07642L11.197 1.08008L11.1945 1.08129L11.1933 1.08381L11.1908 1.08629L11.1882 1.09008L11.1845 1.09373C11.3353 1.22695 11.5069 1.33686 11.6948 1.41708Z" fill="#6B788E"/>
<path d="M11.2933 5.15736V4.26819C11.0574 4.35593 10.8018 4.40288 10.5363 4.40288C10.2473 4.40288 9.97187 4.34732 9.71874 4.24475V5.19441L10.4573 5.90458L11.2933 5.15736Z" fill="#6B788E"/>
<path d="M10.5363 4.08674C11.0488 4.08674 11.5132 3.8793 11.8489 3.54334C12.185 3.20738 12.3935 2.74312 12.3935 2.2306C12.3935 2.1096 12.3813 1.99229 12.359 1.8786C12.0811 1.87121 11.8144 1.81073 11.571 1.70699C11.3502 1.61316 11.1475 1.48342 10.971 1.32538C10.9007 1.39086 10.8129 1.46616 10.7327 1.51807C10.3794 1.76512 9.95096 1.91077 9.48791 1.91077C9.3286 1.91077 9.17052 1.89221 9.01608 1.8589C8.92099 1.83668 8.82595 1.80951 8.73578 1.77625C8.69869 1.92203 8.67899 2.0739 8.67899 2.23064C8.67899 2.74317 8.88756 3.20747 9.22356 3.54339C9.55943 3.87926 10.0237 4.08674 10.5363 4.08674Z" fill="#6B788E"/>
<path d="M9.48787 1.59457C9.88431 1.59457 10.2497 1.47105 10.5498 1.2624L10.5598 1.25374C10.6648 1.18087 10.7611 1.09566 10.8476 1.00305L10.8487 1.00179L10.8512 0.999308L10.8524 0.99809L10.8537 0.995656L10.8561 0.993047L10.8599 0.990569L10.8636 0.985656L10.8784 0.968395L10.8821 0.964743L10.8833 0.962134L10.8857 0.959699L10.8895 0.956003L10.8932 0.95109H10.8944L10.8969 0.947351L10.9044 0.938743L10.9117 0.930177L10.9143 0.927569L10.9192 0.921395L10.9228 0.916525L10.924 0.915264L10.9267 0.912786L10.9304 0.907829L10.934 0.903003L10.9377 0.899264L10.9415 0.894351L10.944 0.890612L10.9451 0.889351L10.9477 0.885699L10.9513 0.880786L10.9539 0.878307L10.9551 0.875742L10.9588 0.87209L10.9624 0.867177V0.86596L10.9663 0.86222L10.9687 0.858525L10.9724 0.853612L10.9761 0.848699L10.9799 0.843786L10.9824 0.84122L10.9835 0.840047L10.986 0.835133L10.9897 0.830264C11.0218 0.78709 11.0527 0.742524 11.0798 0.694394L11.0861 0.685785V0.684524L11.0886 0.682046L11.0898 0.678394L11.091 0.675872L11.0935 0.672176L11.0947 0.669611L11.0959 0.667133L11.0985 0.663394L11.0997 0.660915L11.1022 0.658437L11.1034 0.654698L11.1045 0.652263L11.1082 0.646002L11.1094 0.644872V0.643568L11.112 0.639872L11.1132 0.63735L11.1144 0.633698L11.1169 0.631133L11.1181 0.628655L11.1193 0.625002L11.1217 0.622437L11.1229 0.618785L11.1241 0.617524V0.616307L11.1268 0.612654L11.128 0.610133L11.1291 0.607654L11.1317 0.603915L11.1379 0.591524L11.1391 0.589089L11.1416 0.582828L11.1441 0.58035L11.1528 0.561828V0.560654L11.1539 0.558089L11.1564 0.555611L11.1576 0.551959L11.1601 0.547002L11.1664 0.533437L11.1675 0.532176V0.531089L11.17 0.524872L11.1725 0.521219L11.1737 0.518654L11.1861 0.490306C10.7784 0.338393 10.3277 0.334741 9.91892 0.478002C9.66579 0.563176 9.41261 0.728698 9.22374 0.917612C9.06313 1.07835 8.931 1.26731 8.83835 1.47722C8.91739 1.50814 9.00009 1.53157 9.084 1.55135C9.21244 1.57974 9.34822 1.59457 9.48787 1.59457Z" fill="#6B788E"/>
<path d="M9.31743 6.21573H10.3436L9.36686 5.27594L9.31743 6.21573Z" fill="#6B788E"/>
<path d="M16.3208 5.86124V5.24997C16.1517 5.3068 15.9689 5.33889 15.7799 5.33889C15.5725 5.33889 15.3749 5.30184 15.1921 5.23389V5.88971L15.7206 6.39841L16.3208 5.86124Z" fill="#6B788E"/>
<path d="M14.4314 6.11442V8.04838H18.4856V6.64429L16.7469 5.88599L16.5814 6.03416L16.5789 6.03673L16.5777 6.0379L16.5765 6.03907L16.574 6.04033L16.5727 6.04147L16.5715 6.04407L16.569 6.0452L16.5678 6.04642L15.822 6.71334C15.7638 6.77016 15.67 6.77138 15.6108 6.71447L14.7649 5.90068L14.4314 6.11442Z" fill="#6B788E"/>
<path d="M15.7799 5.02266C16.1602 5.02266 16.5059 4.86827 16.7554 4.61766C17.0049 4.36822 17.1593 4.02366 17.1593 3.64209C17.1593 3.26174 17.0049 2.91596 16.7554 2.66652C16.5059 2.41704 16.1602 2.2627 15.7799 2.2627C15.4021 2.2627 15.0598 2.41339 14.8104 2.65909C14.545 2.94313 14.3992 3.24696 14.3992 3.64209C14.3992 4.02366 14.5536 4.36822 14.8031 4.61766C15.0524 4.86836 15.3984 5.02266 15.7799 5.02266Z" fill="#6B788E"/>
<path d="M6.56837 6.11078L6.23985 5.90087L5.39389 6.71465C5.33471 6.77156 5.24206 6.77026 5.18393 6.71352L4.4381 6.04665L4.43567 6.04539L4.43445 6.04426L4.43202 6.04165L4.43062 6.04052L4.42941 6.03926L4.42819 6.03808L4.42575 6.03691L4.42454 6.03434L4.2578 5.88617L2.51905 6.64448V8.04848H6.56837V6.11078Z" fill="#6B788E"/>
<path d="M11.6514 5.24261L11.5515 5.3327L11.5489 5.33388L11.5478 5.33518L11.5463 5.3364L11.544 5.33753L11.5427 5.34005L11.5415 5.34127L11.539 5.34257L10.5634 6.21575H11.6848L11.6514 5.24261Z" fill="#6B788E"/>
<path d="M19.1328 8.35211C17.5151 8.35211 15.8972 8.35211 14.2794 8.35211H6.72528C5.10631 8.35211 3.48722 8.35211 1.86826 8.35211V9.46355H19.1328V8.35211Z" fill="#6B788E"/>
<path d="M4.68394 5.24997V5.86124L5.28529 6.39841L5.81386 5.88971V5.23389C5.63104 5.30184 5.43221 5.33889 5.22608 5.33889C5.03582 5.33889 4.85425 5.30676 4.68394 5.24997Z" fill="#6B788E"/>
<path d="M14.1276 6.13053L11.9516 5.18214L11.9923 6.36271C11.9948 6.44545 11.928 6.5158 11.8453 6.51832L9.15816 6.51954C9.07424 6.51954 9.00615 6.45158 9.00615 6.36762L9.06794 5.1734L6.87097 6.13053V8.04837H14.1276V6.13053Z" fill="#6B788E"/>
<path d="M5.22607 5.02266C5.60755 5.02266 5.95212 4.86836 6.2016 4.61766C6.45104 4.36822 6.60669 4.02366 6.60669 3.64209C6.60669 3.24696 6.45973 2.94313 6.19425 2.65909C5.94477 2.41339 5.60268 2.2627 5.22607 2.2627C4.84446 2.2627 4.49994 2.41704 4.25046 2.66652C3.99976 2.91596 3.84533 3.26174 3.84533 3.64209C3.84533 4.02366 3.99976 4.36822 4.25046 4.61766C4.4999 4.86827 4.84446 5.02266 5.22607 5.02266Z" fill="#6B788E"/>
<path d="M17.8622 12.3482C17.9757 12.5458 18.166 12.7003 18.4019 12.7644C18.639 12.8274 18.8798 12.7891 19.0774 12.6755C19.233 12.5853 19.3614 12.4482 19.4404 12.2779L20.4222 12.5408L20.5 12.2482L19.5194 11.9851C19.5366 11.7987 19.4935 11.6147 19.4033 11.4591C19.2898 11.2627 19.1009 11.1083 18.8638 11.0453L18.8563 11.0428C18.6216 10.9823 18.3833 11.0206 18.1869 11.1343C18.0326 11.2232 17.903 11.3615 17.8252 11.5307L14.8909 10.7453C14.9404 10.5329 14.9738 10.3155 14.9923 10.0932C14.9984 10.0093 14.9367 9.93643 14.8526 9.93022L6.15859 9.92896C6.07589 9.92896 6.00676 9.99691 6.00676 10.0808L6.0092 10.1018C6.02646 10.3217 6.06111 10.5365 6.10915 10.7453L3.17627 11.5307C3.09723 11.3615 2.96875 11.2244 2.8131 11.1343L2.80314 11.1294C2.60814 11.0194 2.37101 10.9824 2.13757 11.0453C1.90044 11.1084 1.71153 11.2627 1.59787 11.4591L1.59174 11.469C1.50644 11.6234 1.46448 11.8025 1.48187 11.9852L0.5 12.2482L0.579044 12.5409L1.55957 12.2779C1.63861 12.4483 1.76709 12.5853 1.92275 12.6743C2.11909 12.7891 2.3611 12.8274 2.59701 12.7644L2.60188 12.7632C2.83653 12.6989 3.02423 12.5458 3.13792 12.3494C3.2281 12.1938 3.27127 12.0111 3.25388 11.8246L6.18689 11.0379C6.27342 11.3208 6.38572 11.5913 6.5229 11.8468L3.89245 13.3658C3.77262 13.2213 3.61336 13.1224 3.4391 13.0756C3.2194 13.0163 2.97736 13.0422 2.76497 13.1645C2.55118 13.288 2.40805 13.4856 2.3487 13.7041C2.30305 13.8783 2.30918 14.066 2.3734 14.2426L1.49405 14.7502L1.64605 15.012L2.52527 14.5044C2.64505 14.6488 2.80453 14.7477 2.97862 14.7946C3.1971 14.8527 3.4391 14.828 3.65167 14.7069L3.66262 14.7007C3.87015 14.5771 4.01102 14.3821 4.06897 14.1648C4.1148 13.9919 4.10976 13.8041 4.04428 13.6276L6.67472 12.1086C6.82911 12.358 7.00812 12.5902 7.20816 12.8026L5.05941 14.9514C4.90624 14.8427 4.72602 14.7884 4.54689 14.7884C4.31967 14.7884 4.09245 14.8761 3.91715 15.049C3.74428 15.2231 3.65654 15.4502 3.65654 15.6788C3.65654 15.8578 3.71084 16.0382 3.81949 16.1912L3.10079 16.9099L3.31562 17.1236L4.03306 16.4061C4.18628 16.5147 4.36663 16.5692 4.54684 16.5679C4.77406 16.5679 5.00263 16.4815 5.1755 16.3085L5.18663 16.2962C5.35324 16.1245 5.43733 15.9009 5.43733 15.6788C5.43733 15.4985 5.38285 15.3194 5.2742 15.1662L7.42186 13.0174L7.44642 13.0409C7.65394 13.2311 7.87747 13.4015 8.11582 13.5509L6.59803 16.1813C6.42146 16.1158 6.23376 16.1109 6.06089 16.1567C5.84102 16.2159 5.64341 16.3592 5.51998 16.5716L5.51494 16.5802C5.39637 16.7915 5.37306 17.0298 5.43102 17.2471C5.4768 17.42 5.57676 17.5805 5.72124 17.7004L5.21376 18.5809L5.47546 18.7315L5.98311 17.8523C6.15846 17.9164 6.34737 17.9226 6.52024 17.8769C6.73646 17.8188 6.92898 17.6793 7.05381 17.4743L7.06864 17.4483C7.18472 17.2384 7.20807 17.0012 7.15012 16.7863C7.10451 16.6122 7.00442 16.4529 6.8599 16.3332L8.3789 13.7027C8.63447 13.8398 8.90504 13.9522 9.18778 14.0386L8.40121 16.9716C8.21473 16.9544 8.03195 16.9975 7.87629 17.0877C7.67994 17.2013 7.52551 17.3903 7.46142 17.6275C7.39838 17.8645 7.43668 18.1053 7.5502 18.3016C7.64038 18.4573 7.77742 18.587 7.94786 18.666L7.68481 19.6466L7.9776 19.7244L8.24051 18.7438C8.42717 18.761 8.60977 18.7178 8.76543 18.6277C8.96304 18.5141 9.11747 18.3252 9.18047 18.088V18.0868C9.24456 17.8497 9.20504 17.609 9.09152 17.4125C9.00134 17.257 8.86551 17.1285 8.69386 17.0494L9.48047 14.1165C9.76078 14.1819 10.051 14.2201 10.3487 14.23V17.2668C10.1634 17.2989 9.99787 17.3878 9.87078 17.515C9.71026 17.6755 9.61139 17.8979 9.61017 18.1436C9.61017 18.3906 9.70887 18.6129 9.87078 18.7734C9.99791 18.9006 10.1635 18.9895 10.3487 19.0216V20.0368H10.6512V19.0216C10.8365 18.9908 11.0018 18.9018 11.1291 18.7746C11.2896 18.6141 11.3897 18.3905 11.3897 18.1449V18.1422C11.3897 17.8978 11.2896 17.6755 11.1303 17.5149L11.1204 17.5063C10.9957 17.384 10.8339 17.2988 10.6523 17.268V14.23C10.9499 14.2201 11.2389 14.1819 11.5192 14.1165L12.306 17.0494C12.1356 17.1285 11.9985 17.2569 11.9096 17.4125C11.7947 17.6102 11.7564 17.8509 11.8194 18.088C11.8837 18.3252 12.0367 18.5141 12.2344 18.6277L12.2443 18.6327C12.3974 18.7191 12.5765 18.7599 12.7593 18.7438L13.0224 19.7244L13.3163 19.6466L13.0532 18.666C13.2224 18.587 13.3594 18.4585 13.4496 18.3029C13.5633 18.1053 13.6028 17.8645 13.5386 17.6275V17.6262C13.4743 17.389 13.3213 17.2001 13.1249 17.0865C12.9692 16.9975 12.7852 16.9544 12.5987 16.9716L11.8134 14.0386C12.095 13.9522 12.3653 13.8398 12.6223 13.7027L14.1398 16.3332C13.9955 16.4529 13.8966 16.6122 13.851 16.7863C13.7917 17.0049 13.8164 17.2482 13.9386 17.4607C14.0621 17.6743 14.2598 17.8175 14.4795 17.8756C14.6524 17.9225 14.8401 17.9164 15.0167 17.8509L15.5254 18.7314L15.7872 18.5795L15.2785 17.7003C15.4242 17.5804 15.523 17.4199 15.5688 17.247C15.6279 17.0285 15.6032 16.7864 15.481 16.574L15.4747 16.5629C15.3512 16.3542 15.1561 16.2146 14.94 16.1566C14.7659 16.1096 14.5782 16.1158 14.4015 16.1813L12.8839 13.5508C13.1223 13.4014 13.347 13.231 13.5531 13.0408L13.578 13.0174L15.7256 15.1662C15.6181 15.3181 15.5638 15.4985 15.5638 15.6776C15.5638 15.906 15.6503 16.1332 15.8232 16.3073C15.9974 16.4814 16.2257 16.5692 16.4529 16.5692C16.6333 16.5692 16.8125 16.5148 16.9667 16.4062L17.6855 17.1235L17.8979 16.91L17.1815 16.1925C17.2891 16.0393 17.3434 15.859 17.3434 15.6788C17.3434 15.4502 17.2556 15.2231 17.0828 15.0502L17.0716 15.0378C16.8988 14.8724 16.6765 14.7884 16.4529 14.7884C16.2739 14.7884 16.0936 14.8427 15.9405 14.9514L13.7929 12.8026C13.9917 12.5902 14.1708 12.3568 14.3251 12.1085L16.9567 13.6276C16.8913 13.8041 16.8852 13.9918 16.9322 14.1647C16.9902 14.3845 17.1335 14.5821 17.3459 14.7056L17.3546 14.7093C17.5656 14.829 17.8053 14.8525 18.0214 14.7944C18.1955 14.7488 18.3548 14.6487 18.4758 14.5042L19.3552 15.0118L19.5058 14.7501L18.6266 14.2425C18.692 14.0659 18.6981 13.8782 18.6513 13.7053C18.5919 13.4855 18.4486 13.2879 18.2363 13.1644L18.2263 13.1596C18.0165 13.041 17.7768 13.0174 17.5607 13.0755C17.3877 13.1213 17.2273 13.2213 17.1075 13.3657L14.477 11.8467C14.6141 11.5911 14.7265 11.3206 14.8129 11.0378L17.7459 11.8244C17.7289 12.0111 17.772 12.1926 17.8622 12.3482ZM7.87742 11.7752C7.85777 11.8233 7.79838 11.8616 7.74042 11.8616H7.43664C7.32786 11.8616 7.25016 11.7443 7.30068 11.643C7.32051 11.5949 7.37973 11.5578 7.43664 11.5578H7.74042C7.85025 11.5578 7.92812 11.6751 7.87742 11.7752ZM7.87742 11.0243C7.85777 11.0723 7.79838 11.1095 7.74042 11.1095H7.43664C7.32786 11.1095 7.25016 10.9934 7.30068 10.8921C7.32051 10.844 7.37973 10.8069 7.43664 10.8069H7.74042C7.85025 10.8069 7.92812 10.923 7.87742 11.0243ZM9.09021 11.7752C9.0716 11.8233 9.01117 11.8616 8.95425 11.8616H8.65047C8.5406 11.8616 8.46399 11.7443 8.51464 11.643C8.5333 11.5949 8.59369 11.5578 8.65047 11.5578H8.95425C9.06425 11.5578 9.14091 11.6751 9.09021 11.7752ZM9.09021 11.0243C9.0716 11.0723 9.01117 11.1095 8.95425 11.1095H8.65047C8.5406 11.1095 8.46399 10.9934 8.51464 10.8921C8.5333 10.844 8.59369 10.8069 8.65047 10.8069H8.95425C9.06425 10.8069 9.14091 10.923 9.09021 11.0243ZM10.3041 11.7752C10.2856 11.8233 10.2252 11.8616 10.1683 11.8616H9.86443C9.75456 11.8616 9.67795 11.7443 9.72865 11.643C9.74708 11.5949 9.80769 11.5578 9.86443 11.5578H10.1683C10.2783 11.5578 10.3547 11.6751 10.3041 11.7752ZM10.3041 11.0243C10.2856 11.0723 10.2252 11.1095 10.1683 11.1095H9.86443C9.75456 11.1095 9.67795 10.9934 9.72865 10.8921C9.74708 10.844 9.80769 10.8069 9.86443 10.8069H10.1683C10.2783 10.8069 10.3547 10.923 10.3041 11.0243ZM11.518 11.7752C11.4996 11.8233 11.439 11.8616 11.3822 11.8616H11.0785C10.9687 11.8616 10.892 11.7443 10.9427 11.643C10.9611 11.5949 11.0217 11.5578 11.0785 11.5578H11.3822C11.4921 11.5578 11.5687 11.6751 11.518 11.7752ZM11.518 11.0243C11.4996 11.0723 11.439 11.1095 11.3822 11.1095H11.0785C10.9687 11.1095 10.892 10.9934 10.9427 10.8921C10.9611 10.844 11.0217 10.8069 11.0785 10.8069H11.3822C11.4921 10.8069 11.5687 10.923 11.518 11.0243ZM12.732 11.7752C12.7124 11.8233 12.6531 11.8616 12.5962 11.8616H12.2925C12.1826 11.8616 12.1048 11.7443 12.1553 11.643C12.1751 11.5949 12.2343 11.5578 12.2925 11.5578H12.5962C12.7061 11.5578 12.7827 11.6751 12.732 11.7752ZM12.732 11.0243C12.7124 11.0723 12.6531 11.1095 12.5962 11.1095H12.2925C12.1826 11.1095 12.1048 10.9934 12.1553 10.8921C12.1751 10.844 12.2343 10.8069 12.2925 10.8069H12.5962C12.7061 10.8069 12.7827 10.923 12.732 11.0243ZM13.699 11.7752C13.6793 11.8233 13.6199 11.8616 13.5632 11.8616H13.5064C13.3964 11.8616 13.3186 11.7443 13.3692 11.643C13.3891 11.5949 13.4483 11.5578 13.5064 11.5578H13.5632C13.673 11.5578 13.7496 11.6751 13.699 11.7752ZM13.699 11.0243C13.6793 11.0723 13.6199 11.1095 13.5632 11.1095H13.5064C13.3964 11.1095 13.3186 10.9934 13.3692 10.8921C13.3891 10.844 13.4483 10.8069 13.5064 10.8069H13.5632C13.673 10.8069 13.7496 10.923 13.699 11.0243Z" fill="#6B788E"/>
</svg>
