<svg width="17" height="16" viewBox="0 0 17 16" fill="none" xmlns="http://www.w3.org/2000/svg">
<path d="M6.1 0H2.1C1.21634 0 0.5 0.716344 0.5 1.6V7.2C0.5 8.08366 1.21634 8.8 2.1 8.8H6.1C6.98366 8.8 7.7 8.08366 7.7 7.2V1.6C7.7 0.716344 6.98366 0 6.1 0Z" fill="white"/>
<path d="M14.9 0H10.9C10.0163 0 9.3 0.716344 9.3 1.6V4C9.3 4.88366 10.0163 5.6 10.9 5.6H14.9C15.7837 5.6 16.5 4.88366 16.5 4V1.6C16.5 0.716344 15.7837 0 14.9 0Z" fill="white"/>
<path d="M6.1 10.4H2.1C1.21634 10.4 0.5 11.1163 0.5 12V14.4C0.5 15.2836 1.21634 16 2.1 16H6.1C6.98366 16 7.7 15.2836 7.7 14.4V12C7.7 11.1163 6.98366 10.4 6.1 10.4Z" fill="white"/>
<path d="M14.9 7.2H10.9C10.0163 7.2 9.3 7.91634 9.3 8.8V14.4C9.3 15.2837 10.0163 16 10.9 16H14.9C15.7837 16 16.5 15.2837 16.5 14.4V8.8C16.5 7.91634 15.7837 7.2 14.9 7.2Z" fill="white"/>
</svg>
