<svg width="21" height="19" viewBox="0 0 21 19" fill="none" xmlns="http://www.w3.org/2000/svg">
<path d="M15.058 5.2493C16.7918 5.2494 18.1977 6.65514 18.1977 8.38895C18.1976 10.1227 16.7917 11.5285 15.058 11.5286C13.3242 11.5286 11.9185 10.1227 11.9184 8.38895C11.9184 6.65507 13.3241 5.2493 15.058 5.2493Z" stroke="#6B788E"/>
<path d="M15.1645 13.2082C16.3581 13.1969 17.5139 13.6289 18.4077 14.4201C19.2937 15.2047 19.8589 16.2876 19.9985 17.4621C19.9961 17.577 19.9787 17.634 19.9584 17.6613C19.952 17.67 19.9363 17.6883 19.8911 17.7072C19.8407 17.7282 19.7456 17.7531 19.5815 17.7531H10.3295C10.1732 17.7531 10.0838 17.726 10.0366 17.7043C9.99264 17.6841 9.9727 17.6621 9.9604 17.6447C9.93087 17.603 9.91655 17.5378 9.91352 17.4641C10.108 16.2913 10.7073 15.2232 11.6079 14.4455C12.4642 13.7062 13.5409 13.2742 14.6665 13.2151L14.892 13.2082H15.1645Z" stroke="#6B788E"/>
<path d="M4.77539 13.9153C4.76408 13.6017 4.63393 13.3041 4.41211 13.0822C4.19023 12.8604 3.89268 12.7303 3.5791 12.719H2.8291C2.51552 12.7303 2.21797 12.8604 1.99609 13.0822C1.77426 13.3041 1.64412 13.6017 1.63281 13.9153V14.6653C1.64412 14.9788 1.77422 15.2764 1.99609 15.4983C2.21796 15.7201 2.51557 15.8502 2.8291 15.8615H3.5791C3.89265 15.8502 4.19024 15.7201 4.41211 15.4983C4.63399 15.2764 4.76408 14.9788 4.77539 14.6653V13.9153ZM4.77539 10.344C4.76408 10.0304 4.63399 9.73186 4.41211 9.50998C4.19027 9.2883 3.89252 9.15898 3.5791 9.14767H2.8291C2.51569 9.15898 2.21793 9.28832 1.99609 9.50998C1.77422 9.73186 1.64412 10.0304 1.63281 10.344V11.094C1.64415 11.4075 1.77425 11.7051 1.99609 11.927C2.21796 12.1488 2.5156 12.2789 2.8291 12.2903H3.5791C3.89261 12.2789 4.19025 12.1488 4.41211 11.927C4.63396 11.7051 4.76405 11.4075 4.77539 11.094V10.344ZM8.82324 10.344C8.82218 10.3146 8.81854 10.2851 8.81543 10.2561C8.97973 10.8044 9.21511 11.3312 9.51758 11.8225C8.18989 12.9366 7.22632 14.4218 6.74805 16.0862H1V0.887909C1.00209 0.828889 1.02567 0.77248 1.06641 0.729706C1.10482 0.689459 1.15594 0.664376 1.21094 0.65744H9.58594C9.64022 0.662083 9.6909 0.685264 9.72949 0.723846C9.76785 0.762201 9.79105 0.812511 9.7959 0.866425V4.50607C9.7958 4.51583 9.79292 4.52522 9.79004 4.53439L9.78223 4.54221C9.74407 4.58042 9.71319 4.62419 9.68848 4.67111C9.28669 5.24338 8.98572 5.87496 8.79199 6.5383C8.74009 6.31285 8.62576 6.10448 8.45996 5.93869C8.23812 5.71692 7.94043 5.58772 7.62695 5.57639L7.61816 5.57541H6.88574L6.87695 5.57639C6.56337 5.5877 6.26485 5.71681 6.04297 5.93869C5.82124 6.16047 5.69206 6.4583 5.68066 6.7717V7.52267C5.69204 7.83608 5.82124 8.13388 6.04297 8.35568C6.26485 8.57756 6.56338 8.70668 6.87695 8.71799L6.88574 8.71896H7.61816L7.62695 8.71799C7.94045 8.70665 8.23812 8.57748 8.45996 8.35568C8.48728 8.32836 8.51264 8.29925 8.53711 8.26974V8.39084C8.53938 8.89531 8.5999 9.39522 8.71484 9.88107C8.65358 9.74423 8.56785 9.61786 8.45996 9.50998C8.23813 9.28825 7.9404 9.159 7.62695 9.14767H6.87695C6.56337 9.15899 6.26485 9.2881 6.04297 9.50998C5.8211 9.73185 5.69197 10.0304 5.68066 10.344V11.094C5.692 11.4074 5.82125 11.7051 6.04297 11.927C6.26485 12.1488 6.56338 12.2789 6.87695 12.2903H7.62695C7.94049 12.2789 8.2381 12.1488 8.45996 11.927C8.68181 11.7051 8.8119 11.4075 8.82324 11.094V10.344ZM4.77539 6.7717C4.76399 6.45825 4.6339 6.16048 4.41211 5.93869C4.19026 5.71697 3.89256 5.58769 3.5791 5.57639L3.57031 5.57541H2.83789L2.8291 5.57639C2.51565 5.58769 2.21794 5.71698 1.99609 5.93869C1.7743 6.16048 1.64421 6.45825 1.63281 6.7717V7.52267C1.64419 7.83615 1.77428 8.13387 1.99609 8.35568C2.21795 8.57742 2.51563 8.70668 2.8291 8.71799L2.83789 8.71896H3.57031L3.5791 8.71799C3.89258 8.70668 4.19025 8.57743 4.41211 8.35568C4.63392 8.13387 4.76402 7.83616 4.77539 7.52267V6.7717ZM4.77539 3.20041C4.76403 2.88691 4.63393 2.58923 4.41211 2.3674C4.19025 2.14564 3.89259 2.0164 3.5791 2.0051L3.57031 2.00412H2.83789L2.8291 2.0051C2.51562 2.0164 2.21795 2.14565 1.99609 2.3674C1.77427 2.58923 1.64418 2.88691 1.63281 3.20041V3.95139C1.64422 4.26481 1.77431 4.56261 1.99609 4.78439C2.21794 5.00609 2.51567 5.13539 2.8291 5.1467L2.83789 5.14767H3.57031L3.5791 5.1467C3.89255 5.13539 4.19026 5.0061 4.41211 4.78439C4.63389 4.56261 4.76398 4.26482 4.77539 3.95139V3.20041ZM8.82324 3.20041C8.81188 2.88691 8.68179 2.58923 8.45996 2.3674C8.23812 2.14559 7.94046 2.01643 7.62695 2.0051L7.61816 2.00412H6.88574L6.87695 2.0051C6.56338 2.01641 6.26485 2.14552 6.04297 2.3674C5.82125 2.58921 5.69203 2.887 5.68066 3.20041V3.95139C5.69207 4.26478 5.82123 4.56262 6.04297 4.78439C6.26485 5.00627 6.56338 5.13539 6.87695 5.1467L6.88574 5.14767H7.61816L7.62695 5.1467C7.94042 5.13537 8.23812 5.00615 8.45996 4.78439C8.68175 4.56261 8.81184 4.26482 8.82324 3.95139V3.20041Z" fill="#6B788E" stroke="#6B788E"/>
</svg>
