<svg width="16" height="16" viewBox="0 0 16 16" fill="none" xmlns="http://www.w3.org/2000/svg">
<path d="M14.5037 13.7377L12.2121 11.4972L12.1584 11.4155C12.0586 11.3161 11.922 11.2601 11.7795 11.2601C11.637 11.2601 11.5004 11.3161 11.4005 11.4155C9.45303 13.2022 6.45214 13.2993 4.38804 11.6425C2.32395 9.98561 1.83715 7.08891 3.2505 4.87344C4.66384 2.65798 7.53876 1.81123 9.96861 2.89475C12.3985 3.97828 13.6292 6.65586 12.8447 9.15172C12.7882 9.33203 12.8344 9.52811 12.9659 9.66611C13.0973 9.8041 13.2941 9.86304 13.4821 9.82072C13.67 9.7784 13.8206 9.64126 13.8771 9.46095C14.815 6.49909 13.3985 3.3117 10.5441 1.9607C7.6897 0.609703 4.25393 1.50054 2.45941 4.05694C0.664888 6.61333 1.05016 10.0681 3.36599 12.1863C5.68183 14.3046 9.23323 14.4506 11.7228 12.5299L13.7518 14.5137C13.9614 14.7177 14.3002 14.7177 14.5097 14.5137C14.719 14.3068 14.719 13.9737 14.5097 13.7669L14.5037 13.7377Z" fill="#667085"/>
</svg>
