<svg width="19" height="19" viewBox="0 0 19 19" fill="none" xmlns="http://www.w3.org/2000/svg">
<path d="M3.60745 13.6489C2.09941 14.1013 1.16667 14.7263 1.16667 15.4167C1.16667 16.7974 4.89763 17.9167 9.5 17.9167C14.1024 17.9167 17.8333 16.7974 17.8333 15.4167C17.8333 14.7263 16.9006 14.1013 15.3925 13.6489" stroke="#6B788E" stroke-width="2" stroke-linecap="round" stroke-linejoin="round"/>
<path fill-rule="evenodd" clip-rule="evenodd" d="M9.5 14.5833C9.5 14.5833 14.9167 11.0433 14.9167 6.95074C14.9167 4.03242 12.4915 1.66666 9.5 1.66666C6.50845 1.66666 4.08333 4.03242 4.08333 6.95074C4.08333 11.0433 9.5 14.5833 9.5 14.5833Z" stroke="#6B788E" stroke-width="2" stroke-linejoin="round"/>
<path fill-rule="evenodd" clip-rule="evenodd" d="M9.50001 9.16667C10.6506 9.16667 11.5833 8.23392 11.5833 7.08333C11.5833 5.93275 10.6506 5 9.50001 5C8.34942 5 7.41667 5.93275 7.41667 7.08333C7.41667 8.23392 8.34942 9.16667 9.50001 9.16667Z" stroke="#6B788E" stroke-width="2" stroke-linejoin="round"/>
</svg>
