<svg width="21" height="24" viewBox="0 0 21 24" fill="none" xmlns="http://www.w3.org/2000/svg">
<path d="M9.35059 15.9416L8.54199 22.7043H1.1582L2.83691 16.6828L7.47461 15.6555L7.61816 15.6233L7.7207 15.5197L8.36328 14.8742L9.35059 15.9416Z" stroke="#6B788E"/>
<path d="M13.2736 15.5208L13.3772 15.6233L13.5188 15.6555L18.1594 16.6829L19.842 22.7054H12.4533L11.6447 15.9436L12.6291 14.8753L13.2736 15.5208Z" stroke="#6B788E"/>
<path d="M10.5019 0.593994C11.8182 0.594041 12.7606 0.819478 13.4423 1.17212C14.1167 1.52111 14.5645 2.00914 14.873 2.58813C15.513 3.78943 15.5572 5.35845 15.6513 6.93677L15.6572 7.04126C15.4092 7.09579 15.0914 7.15019 14.7099 7.19751C13.6429 7.32986 12.1543 7.41234 10.4999 7.41235C8.84676 7.41235 7.35724 7.32989 6.28999 7.19751C5.9095 7.15031 5.59241 7.09662 5.34467 7.04224L5.35151 6.93579C5.44461 5.35825 5.48864 3.7892 6.12885 2.58813C6.43747 2.00919 6.88496 1.52115 7.55952 1.17212C8.24149 0.819307 9.18509 0.593994 10.5019 0.593994Z" stroke="#6B788E"/>
<path d="M6.06313 8.88297C7.20631 9.05449 8.89097 9.16226 10.7614 9.16226C12.3686 9.16226 13.8294 9.08262 14.9313 8.95328C14.3702 11.594 12.5462 13.3987 10.5084 13.4005C8.44834 13.4005 6.60073 11.5606 6.06313 8.88297Z" stroke="#6B788E"/>
</svg>
